<svg style="position: absolute; width: 0; height: 0; overflow: hidden;" version="1.1" xmlns="http://www.w3.org/2000/svg" xmlns:xlink="http://www.w3.org/1999/xlink">
<defs>
<symbol id="icon-logo" viewBox="0 0 48 32">
<title>logo</title>
<path d="M1.508 5.27h9.902v-3.878h-9.902v3.878zM2.114 1.998h8.69v2.668h-8.69v-2.668z"></path>
<path d="M1.508 15.086h9.902v-3.878h-9.902v3.878zM2.114 11.814h8.69v2.666h-8.69v-2.666z"></path>
<path d="M18.544 1l-6.038 14.086h12.074l-6.038-14.086zM18.544 2.538l5.118 11.944h-10.238l5.118-11.944z"></path>
<path d="M29.7 1.392c-3.242 0-5.88 2.652-5.88 5.912s2.638 5.912 5.88 5.912c3.242 0 5.88-2.652 5.88-5.912s-2.638-5.912-5.88-5.912zM29.7 12.61c-2.908 0-5.274-2.38-5.274-5.306s2.366-5.308 5.274-5.308c2.908 0 5.276 2.38 5.276 5.308s-2.366 5.306-5.276 5.306z"></path>
<path d="M34.622 1.392l12.114 14.214v-14.214h-12.114zM35.934 1.998h10.196v11.964l-10.196-11.964z"></path>
<path d="M8.084 29.068h-4.084v-1.456h3.994v-1.932h-3.994v-1.34h4.084v-1.934h-6.3v8.594h6.3v-1.932zM18.356 22.406h-2.796l-3.234 8.594h2.512l0.426-1.238h3.39l0.424 1.238h2.512l-3.234-8.594zM15.868 27.83l1.096-3.234 1.082 3.234h-2.178zM31.666 27.842c0.472-0.164 0.876-0.462 1.212-0.896s0.502-0.994 0.502-1.682c0-0.826-0.266-1.508-0.798-2.050s-1.262-0.812-2.19-0.812h-4.304v8.594h2.216v-2.886h1.134l1.442 2.886h2.538l-1.752-3.158zM28.304 26.182v-1.842h1.752c0.31 0 0.564 0.082 0.766 0.244s0.302 0.386 0.302 0.67c0 0.292-0.1 0.52-0.302 0.684s-0.458 0.246-0.766 0.246h-1.752zM46.46 22.406h-2.23v4.73l-3.48-4.73h-2.28v8.594h2.216v-4.974l3.634 4.974h2.14v-8.594z"></path>
</symbol>
</defs>
</svg>
